<svg width="983" height="297" viewBox="0 0 983 297" fill="none" xmlns="http://www.w3.org/2000/svg">
<path d="M120 176.9V142.82M120 176.9H222C228.627 176.9 234 171.527 234 164.9V120.74C234 114.113 228.627 108.74 222 108.74L154.2 108.74C135.312 108.74 120 123.998 120 142.82M120 176.9H18C11.3726 176.9 6 171.527 6 164.9L6 120.74C6 114.113 11.3726 108.74 18 108.74L85.8 108.74C104.688 108.74 120 123.998 120 142.82M85.8 176.9H154.2V256.42C154.2 275.242 138.888 290.5 120 290.5H97.8C91.1726 290.5 85.8 285.127 85.8 278.5V176.9ZM159.901 46.26C159.901 68.2188 142.037 86.02 120.001 86.02C97.9646 86.02 80.1008 68.2188 80.1008 46.26C80.1008 24.3012 97.9646 6.5 120.001 6.5C142.037 6.5 159.901 24.3012 159.901 46.26Z" stroke="url(#paint0_linear_212_11)" stroke-width="12"/>
<path d="M308.721 221V41.6H379.181C394.434 41.6 407.174 42.8133 417.401 45.24C427.627 47.6666 436.814 52.0866 444.961 58.5C453.281 64.74 459.347 73.9266 463.161 86.06C467.147 98.02 469.141 113.187 469.141 131.56C469.141 149.067 467.234 163.713 463.421 175.5C459.781 187.113 453.974 196.3 446.001 203.06C438.201 209.647 428.927 214.327 418.181 217.1C407.607 219.7 394.607 221 379.181 221H308.721ZM379.181 206.7C392.007 206.7 402.581 205.833 410.901 204.1C419.394 202.193 427.107 198.64 434.041 193.44C440.974 188.24 446.001 180.613 449.121 170.56C452.414 160.333 454.061 147.333 454.061 131.56C454.061 120.467 453.281 110.76 451.721 102.44C450.334 94.12 447.994 87.1867 444.701 81.64C441.407 76.0933 437.767 71.5867 433.781 68.12C429.967 64.6533 424.941 62.0533 418.701 60.32C412.634 58.5867 406.654 57.46 400.761 56.94C394.867 56.2466 387.674 55.9 379.181 55.9H323.541V206.7H379.181Z" fill="#2372E4"/>
<path d="M308.721 221V41.6H379.181C394.434 41.6 407.174 42.8133 417.401 45.24C427.627 47.6666 436.814 52.0866 444.961 58.5C453.281 64.74 459.347 73.9266 463.161 86.06C467.147 98.02 469.141 113.187 469.141 131.56C469.141 149.067 467.234 163.713 463.421 175.5C459.781 187.113 453.974 196.3 446.001 203.06C438.201 209.647 428.927 214.327 418.181 217.1C407.607 219.7 394.607 221 379.181 221H308.721ZM379.181 206.7C392.007 206.7 402.581 205.833 410.901 204.1C419.394 202.193 427.107 198.64 434.041 193.44C440.974 188.24 446.001 180.613 449.121 170.56C452.414 160.333 454.061 147.333 454.061 131.56C454.061 120.467 453.281 110.76 451.721 102.44C450.334 94.12 447.994 87.1867 444.701 81.64C441.407 76.0933 437.767 71.5867 433.781 68.12C429.967 64.6533 424.941 62.0533 418.701 60.32C412.634 58.5867 406.654 57.46 400.761 56.94C394.867 56.2466 387.674 55.9 379.181 55.9H323.541V206.7H379.181Z" fill="url(#paint1_linear_212_11)"/>
<path d="M520.948 200.46C529.788 208.433 543.221 212.42 561.248 212.42C579.274 212.42 592.708 208.433 601.548 200.46C610.388 192.313 614.808 177.753 614.808 156.78C614.808 135.287 610.388 120.38 601.548 112.06C592.708 103.74 579.274 99.58 561.248 99.58C543.221 99.58 529.788 103.74 520.948 112.06C512.281 120.207 507.948 135.113 507.948 156.78C507.948 177.753 512.281 192.313 520.948 200.46ZM561.248 87.1C583.954 87.1 600.854 92.4733 611.948 103.22C623.214 113.793 628.848 131.647 628.848 156.78C628.848 181.22 623.214 198.727 611.948 209.3C600.854 219.7 583.954 224.9 561.248 224.9C538.714 224.9 521.814 219.7 510.548 209.3C499.281 198.727 493.648 181.22 493.648 156.78C493.648 131.647 499.281 113.793 510.548 103.22C521.814 92.4733 538.714 87.1 561.248 87.1Z" fill="#2372E4"/>
<path d="M520.948 200.46C529.788 208.433 543.221 212.42 561.248 212.42C579.274 212.42 592.708 208.433 601.548 200.46C610.388 192.313 614.808 177.753 614.808 156.78C614.808 135.287 610.388 120.38 601.548 112.06C592.708 103.74 579.274 99.58 561.248 99.58C543.221 99.58 529.788 103.74 520.948 112.06C512.281 120.207 507.948 135.113 507.948 156.78C507.948 177.753 512.281 192.313 520.948 200.46ZM561.248 87.1C583.954 87.1 600.854 92.4733 611.948 103.22C623.214 113.793 628.848 131.647 628.848 156.78C628.848 181.22 623.214 198.727 611.948 209.3C600.854 219.7 583.954 224.9 561.248 224.9C538.714 224.9 521.814 219.7 510.548 209.3C499.281 198.727 493.648 181.22 493.648 156.78C493.648 131.647 499.281 113.793 510.548 103.22C521.814 92.4733 538.714 87.1 561.248 87.1Z" fill="url(#paint2_linear_212_11)"/>
<path d="M769.345 178.62H783.645C779.659 209.473 758.339 224.9 719.685 224.9C697.152 224.9 680.252 219.7 668.985 209.3C657.719 198.727 652.085 181.22 652.085 156.78C652.085 131.647 657.719 113.793 668.985 103.22C680.252 92.4733 697.152 87.1 719.685 87.1C738.059 87.1 752.619 90.6533 763.365 97.76C774.112 104.867 780.699 116.48 783.125 132.6H768.565C765.272 110.587 748.979 99.58 719.685 99.58C701.659 99.58 688.225 103.74 679.385 112.06C670.719 120.207 666.385 135.113 666.385 156.78C666.385 177.753 670.719 192.313 679.385 200.46C688.225 208.433 701.659 212.42 719.685 212.42C734.072 212.42 745.425 209.907 753.745 204.88C762.239 199.68 767.439 190.927 769.345 178.62Z" fill="#2372E4"/>
<path d="M769.345 178.62H783.645C779.659 209.473 758.339 224.9 719.685 224.9C697.152 224.9 680.252 219.7 668.985 209.3C657.719 198.727 652.085 181.22 652.085 156.78C652.085 131.647 657.719 113.793 668.985 103.22C680.252 92.4733 697.152 87.1 719.685 87.1C738.059 87.1 752.619 90.6533 763.365 97.76C774.112 104.867 780.699 116.48 783.125 132.6H768.565C765.272 110.587 748.979 99.58 719.685 99.58C701.659 99.58 688.225 103.74 679.385 112.06C670.719 120.207 666.385 135.113 666.385 156.78C666.385 177.753 670.719 192.313 679.385 200.46C688.225 208.433 701.659 212.42 719.685 212.42C734.072 212.42 745.425 209.907 753.745 204.88C762.239 199.68 767.439 190.927 769.345 178.62Z" fill="url(#paint3_linear_212_11)"/>
<path d="M824.177 41.6V221H809.877V41.6H824.177Z" fill="#2372E4"/>
<path d="M824.177 41.6V221H809.877V41.6H824.177Z" fill="url(#paint4_linear_212_11)"/>
<path d="M882.076 267.8L906.776 217.1L840.216 91H855.816L914.056 202.28L967.356 91H982.696L896.896 267.8H882.076Z" fill="#2372E4"/>
<path d="M882.076 267.8L906.776 217.1L840.216 91H855.816L914.056 202.28L967.356 91H982.696L896.896 267.8H882.076Z" fill="url(#paint5_linear_212_11)"/>
<defs>
<linearGradient id="paint0_linear_212_11" x1="37" y1="-4" x2="225.5" y2="329.5" gradientUnits="userSpaceOnUse">
<stop stop-color="#1366DD"/>
<stop offset="1" stop-color="#5FA0FF"/>
</linearGradient>
<linearGradient id="paint1_linear_212_11" x1="384.224" y1="-28.1637" x2="489.17" y2="458.997" gradientUnits="userSpaceOnUse">
<stop stop-color="#1366DD"/>
<stop offset="1" stop-color="#5FA0FF"/>
</linearGradient>
<linearGradient id="paint2_linear_212_11" x1="384.224" y1="-28.1637" x2="489.17" y2="458.997" gradientUnits="userSpaceOnUse">
<stop stop-color="#1366DD"/>
<stop offset="1" stop-color="#5FA0FF"/>
</linearGradient>
<linearGradient id="paint3_linear_212_11" x1="384.224" y1="-28.1637" x2="489.17" y2="458.997" gradientUnits="userSpaceOnUse">
<stop stop-color="#1366DD"/>
<stop offset="1" stop-color="#5FA0FF"/>
</linearGradient>
<linearGradient id="paint4_linear_212_11" x1="384.224" y1="-28.1637" x2="489.17" y2="458.997" gradientUnits="userSpaceOnUse">
<stop stop-color="#1366DD"/>
<stop offset="1" stop-color="#5FA0FF"/>
</linearGradient>
<linearGradient id="paint5_linear_212_11" x1="384.224" y1="-28.1637" x2="489.17" y2="458.997" gradientUnits="userSpaceOnUse">
<stop stop-color="#1366DD"/>
<stop offset="1" stop-color="#5FA0FF"/>
</linearGradient>
</defs>
</svg>
