<svg width="180" height="54" viewBox="0 0 180 54" fill="none" xmlns="http://www.w3.org/2000/svg">
<path d="M65.4072 38.4035V7.90125H77.3872C79.9807 7.90125 82.1468 8.10754 83.8856 8.52013C85.6244 8.93272 87.1864 9.68423 88.5715 10.7746C89.9861 11.8356 91.0176 13.3975 91.666 15.4605C92.3438 17.494 92.6827 20.0727 92.6827 23.1966C92.6827 26.1731 92.3586 28.6634 91.7102 30.6674C91.0913 32.6419 90.104 34.2039 88.7483 35.3532C87.4221 36.4731 85.8454 37.2688 84.0182 37.7404C82.2205 38.1824 80.0102 38.4035 77.3872 38.4035H65.4072ZM77.3872 35.9721C79.5681 35.9721 81.3658 35.8248 82.7805 35.5301C84.2245 35.2059 85.536 34.6017 86.7148 33.7176C87.8937 32.8335 88.7484 31.5368 89.2788 29.8275C89.8388 28.0887 90.1188 25.8784 90.1188 23.1966C90.1188 21.3104 89.9861 19.6601 89.7209 18.2455C89.4851 16.8309 89.0873 15.652 88.5273 14.709C87.9674 13.7659 87.3485 12.9997 86.6706 12.4103C86.0223 11.8209 85.1676 11.3788 84.1067 11.0841C83.0752 10.7894 82.0584 10.5978 81.0564 10.5094C80.0544 10.3915 78.8313 10.3326 77.3872 10.3326H67.927V35.9721H77.3872Z" fill="#347CE3"/>
<path d="M101.491 34.9112C102.994 36.2668 105.278 36.9447 108.343 36.9447C111.408 36.9447 113.692 36.2668 115.195 34.9112C116.698 33.526 117.45 31.0505 117.45 27.4845C117.45 23.8302 116.698 21.2957 115.195 19.8811C113.692 18.4665 111.408 17.7592 108.343 17.7592C105.278 17.7592 102.994 18.4665 101.491 19.8811C100.018 21.2662 99.2809 23.8007 99.2809 27.4845C99.2809 31.0505 100.018 33.526 101.491 34.9112ZM108.343 15.6373C112.204 15.6373 115.077 16.5509 116.964 18.3781C118.879 20.1758 119.837 23.2113 119.837 27.4845C119.837 31.6399 118.879 34.6165 116.964 36.4142C115.077 38.1824 112.204 39.0665 108.343 39.0665C104.512 39.0665 101.639 38.1824 99.723 36.4142C97.8074 34.6165 96.8496 31.6399 96.8496 27.4845C96.8496 23.2113 97.8074 20.1758 99.723 18.3781C101.639 16.5509 104.512 15.6373 108.343 15.6373Z" fill="#347CE3"/>
<path d="M143.725 31.1979H146.157C145.479 36.4437 141.854 39.0665 135.282 39.0665C131.45 39.0665 128.577 38.1824 126.661 36.4142C124.746 34.6165 123.788 31.6399 123.788 27.4845C123.788 23.2113 124.746 20.1758 126.661 18.3781C128.577 16.5509 131.45 15.6373 135.282 15.6373C138.406 15.6373 140.881 16.2415 142.708 17.4498C144.536 18.6581 145.656 20.6326 146.068 23.3734H143.593C143.033 19.6306 140.262 17.7592 135.282 17.7592C132.217 17.7592 129.933 18.4665 128.43 19.8811C126.956 21.2662 126.219 23.8007 126.219 27.4845C126.219 31.0505 126.956 33.526 128.43 34.9112C129.933 36.2668 132.217 36.9447 135.282 36.9447C137.728 36.9447 139.658 36.5173 141.073 35.6627C142.517 34.7786 143.401 33.2903 143.725 31.1979Z" fill="#347CE3"/>
<path d="M153.048 7.90125V38.4035H150.617V7.90125H153.048Z" fill="#347CE3"/>
<path d="M162.892 46.3605L167.092 37.7404L155.775 16.3004H158.427L168.33 35.2206L177.392 16.3004H180L165.412 46.3605H162.892Z" fill="#347CE3"/>
<rect y="0.837158" width="52.3256" height="52.3256" rx="26.1628" fill="url(#paint0_linear_214_22)"/>
<path d="M26.5005 19.857C23.5044 19.857 21.0755 17.4266 21.0755 14.4285C21.0755 11.4304 23.5044 9 26.5005 9C29.4966 9 31.9255 11.4304 31.9255 14.4285C31.9255 17.4266 29.4966 19.857 26.5005 19.857Z" fill="white"/>
<path d="M31.15 41.347V30.4901H40.8519C41.486 30.4901 42 29.9703 42 29.3291V22.345C42 21.7038 41.486 21.1841 40.8519 21.1841H31.15C28.5819 21.1841 26.5 23.2673 26.5 25.8371C26.5 23.2673 24.4181 21.1841 21.85 21.1841H12.1481C11.514 21.1841 11 21.7038 11 22.345V29.3291C11 29.9703 11.514 30.4901 12.1482 30.4901H21.85V44.8391C21.85 45.4802 22.364 46 22.9982 46H26.5C29.0681 46 31.15 43.9168 31.15 41.347Z" fill="white"/>
<defs>
<linearGradient id="paint0_linear_214_22" x1="10.9884" y1="-1.25587" x2="40.5523" y2="56.6947" gradientUnits="userSpaceOnUse">
<stop stop-color="#347CE3"/>
<stop offset="1" stop-color="#61A2FF"/>
</linearGradient>
</defs>
</svg>
