<svg width="32" height="32" viewBox="0 0 32 32" fill="none" xmlns="http://www.w3.org/2000/svg">
<path d="M16.2 12.6614C15.4003 11.6955 14.192 11.0801 12.84 11.0801L5 11.0801L4 11.0801V12.0801L4 18.8001L4 19.8001H5H11.84V30.0001V31.0001H12.84H16.2C18.608 31.0001 20.56 29.048 20.56 26.6401V19.8001L27.4 19.8001H28.4V18.8001V12.0801V11.0801H27.4L19.56 11.0801C18.208 11.0801 16.9997 11.6955 16.2 12.6614Z" fill="white" stroke="black" stroke-width="2"/>
<path d="M16.2013 10.84C18.9185 10.84 21.1213 8.63721 21.1212 5.91997C21.1212 3.20273 18.9185 0.999966 16.2012 0.999966C13.484 0.999967 11.2812 3.20273 11.2812 5.91997C11.2812 8.63721 13.484 10.84 16.2013 10.84Z" fill="white" stroke="black" stroke-width="2"/>
</svg>
