<svg width="24" height="24" viewBox="0 0 24 24" fill="none" xmlns="http://www.w3.org/2000/svg">
<path d="M15.5959 3.58743C15.5363 3.40364 15.4059 3.25113 15.2339 3.16341C15.0616 3.07559 14.8617 3.05995 14.6779 3.1197L11.63 4.11014C11.2473 4.23448 11.0378 4.64548 11.1622 5.02812L11.3146 5.49711L3.56169 11.192L0.503415 12.1856C0.319625 12.2454 0.167115 12.3756 0.0793972 12.5478C-0.00832059 12.7199 -0.0240573 12.9199 0.035684 13.1037L1.89388 18.8216C1.99394 19.1294 2.27953 19.3251 2.58659 19.3251C2.66129 19.3251 2.73716 19.3136 2.81196 19.2893L5.86974 18.2957L7.4408 18.3039C7.75631 19.7937 9.0813 20.915 10.6635 20.915C12.2337 20.915 13.55 19.8105 13.8784 18.3378L15.4897 18.3463L15.642 18.8154C15.7016 18.9991 15.8319 19.1517 16.0041 19.2394C16.1075 19.292 16.2209 19.3187 16.3349 19.3187C16.4106 19.3187 16.4867 19.3069 16.5599 19.2831L19.6079 18.2927C19.9906 18.1684 20.2001 17.7574 20.0758 17.3748L15.5959 3.58743ZM3.05442 17.6783L1.64666 13.3462L3.43055 12.7665L4.83811 17.0987L3.05442 17.6783ZM10.6634 19.4579C9.89485 19.4579 9.23605 18.9832 8.96221 18.312L12.358 18.3298C12.0799 18.9919 11.4253 19.4579 10.6634 19.4579ZM6.28628 16.8407L5.52004 14.4824L4.75379 12.1241L11.7886 6.95684L13.946 13.5963L15.0151 16.8867L6.28628 16.8407ZM16.8025 17.6722L16.713 17.397C16.7129 17.3965 16.7128 17.3959 16.7127 17.3954L14.7878 11.4714L12.7731 5.27068L14.4353 4.73048L18.4647 17.1319L16.8025 17.6722Z" fill="#007BFF"/>
<path d="M18.0501 7.12889C18.1562 7.1829 18.2691 7.20845 18.3804 7.20845C18.6456 7.20845 18.9014 7.06312 19.0301 6.81056L20.3377 4.24508C20.5205 3.88663 20.378 3.44785 20.0196 3.26513C19.6611 3.0825 19.2223 3.22481 19.0396 3.58336L17.732 6.14884C17.5492 6.50738 17.6917 6.94617 18.0501 7.12889Z" fill="#007BFF"/>
<path d="M23.5237 14.0574L20.9579 12.7504C20.5993 12.5678 20.1606 12.7104 19.978 13.0689C19.7953 13.4274 19.938 13.8661 20.2964 14.0488L22.8623 15.3558C22.9683 15.4097 23.0812 15.4352 23.1924 15.4352C23.4576 15.4352 23.7134 15.2898 23.8422 15.0373C24.0249 14.6788 23.8823 14.2401 23.5237 14.0574Z" fill="#007BFF"/>
<path d="M19.8405 9.83094C19.9406 10.1388 20.2262 10.3345 20.5333 10.3345C20.608 10.3345 20.6838 10.323 20.7586 10.2987L23.4968 9.40886C23.8793 9.28452 24.0889 8.87352 23.9644 8.49079C23.8401 8.10805 23.4291 7.89901 23.0464 8.02306L20.3082 8.91286C19.9256 9.0373 19.7162 9.4483 19.8405 9.83094Z" fill="#007BFF"/>
</svg>
