<svg width="24" height="24" viewBox="0 0 24 24" fill="none" xmlns="http://www.w3.org/2000/svg">
<path d="M1.00759 8.85194C0.643991 8.98331 0.455738 9.38456 0.58711 9.74815C0.718482 10.1117 1.11973 10.3 1.48332 10.1686L1.00759 8.85194ZM21.6454 2.13949L22.2606 2.47351C22.356 2.2978 22.3717 2.08967 22.3037 1.90162C22.2358 1.71357 22.0907 1.56356 21.905 1.48941L21.6454 2.13949ZM19.3064 4.98015C19.122 5.3199 19.2478 5.74486 19.5876 5.92934C19.9273 6.11381 20.3523 5.98794 20.5368 5.64819L19.3064 4.98015ZM18.5501 0.14972C18.1911 0.00634944 17.7838 0.181178 17.6404 0.54021C17.497 0.899242 17.6719 1.30652 18.0309 1.44989L18.5501 0.14972ZM21.8522 7.2998H18.2174V8.6998H21.8522V7.2998ZM16.3696 9.15364V21.8459H17.7696V9.15364H16.3696ZM18.2174 23.6997H21.8522V22.2997H18.2174V23.6997ZM23.7 21.8459V9.15364H22.3V21.8459H23.7ZM21.8522 23.6997C22.8761 23.6997 23.7 22.8663 23.7 21.8459H22.3C22.3 22.1 22.0961 22.2997 21.8522 22.2997V23.6997ZM16.3696 21.8459C16.3696 22.8663 17.1934 23.6997 18.2174 23.6997V22.2997C17.9735 22.2997 17.7696 22.1 17.7696 21.8459H16.3696ZM18.2174 7.2998C17.1934 7.2998 16.3696 8.13325 16.3696 9.15364H17.7696C17.7696 8.89954 17.9735 8.6998 18.2174 8.6998V7.2998ZM21.8522 8.6998C22.0961 8.6998 22.3 8.89954 22.3 9.15364H23.7C23.7 8.13325 22.8761 7.2998 21.8522 7.2998V8.6998ZM13.8174 10.7614H10.1826V12.1614H13.8174V10.7614ZM8.33479 12.6153V21.846H9.73479V12.6153H8.33479ZM10.1826 23.6998H13.8174V22.2998H10.1826V23.6998ZM15.6652 21.846V12.6153H14.2652V21.846H15.6652ZM13.8174 23.6998C14.8414 23.6998 15.6652 22.8664 15.6652 21.846H14.2652C14.2652 22.1001 14.0613 22.2998 13.8174 22.2998V23.6998ZM8.33479 21.846C8.33479 22.8664 9.15864 23.6998 10.1826 23.6998V22.2998C9.93873 22.2998 9.73479 22.1001 9.73479 21.846H8.33479ZM10.1826 10.7614C9.15864 10.7614 8.33479 11.5949 8.33479 12.6153H9.73479C9.73479 12.3612 9.93873 12.1614 10.1826 12.1614V10.7614ZM13.8174 12.1614C14.0613 12.1614 14.2652 12.3612 14.2652 12.6153H15.6652C15.6652 11.5949 14.8414 10.7614 13.8174 10.7614V12.1614ZM5.7826 14.2228H2.14783V15.6228H5.7826V14.2228ZM0.3 16.0766V21.8458H1.7V16.0766H0.3ZM2.14782 23.6997H5.7826V22.2997H2.14782V23.6997ZM7.63042 21.8458V16.0766H6.23042V21.8458H7.63042ZM5.7826 23.6997C6.80657 23.6997 7.63042 22.8662 7.63042 21.8458H6.23042C6.23042 22.0999 6.02648 22.2997 5.7826 22.2997V23.6997ZM0.3 21.8458C0.3 22.8662 1.12385 23.6997 2.14782 23.6997V22.2997C1.90394 22.2997 1.7 22.0999 1.7 21.8458H0.3ZM2.14783 14.2228C1.12386 14.2228 0.3 15.0562 0.3 16.0766H1.7C1.7 15.8225 1.90394 15.6228 2.14783 15.6228V14.2228ZM5.7826 15.6228C6.02648 15.6228 6.23042 15.8225 6.23042 16.0766H7.63042C7.63042 15.0562 6.80657 14.2228 5.7826 14.2228V15.6228ZM1.48332 10.1686L21.8833 2.79784L21.4075 1.48115L1.00759 8.85194L1.48332 10.1686ZM21.0302 1.80547L19.3064 4.98015L20.5368 5.64819L22.2606 2.47351L21.0302 1.80547ZM21.905 1.48941L18.5501 0.14972L18.0309 1.44989L21.3858 2.78958L21.905 1.48941Z" fill="#007BFF"/>
</svg>
