<svg width="24" height="24" viewBox="0 0 24 24" fill="none" xmlns="http://www.w3.org/2000/svg">
<g clip-path="url(#clip0_4205_2544)">
<path d="M10.0898 2.56826C11.0859 2.56826 12.0449 2.71816 12.9512 2.99568C13.0957 3.04025 13.2422 3.08887 13.3906 3.14154C13.5547 3.20028 13.7168 3.26308 13.877 3.32993L13.2168 4.5879C12.2461 4.20099 11.1934 3.99031 10.0918 3.99031H10.0898C8.88672 3.99031 7.74023 4.24353 6.69727 4.70134C6.52734 4.77629 6.35938 4.85529 6.19727 4.94037C5.35352 5.37793 4.58789 5.95323 3.92773 6.63792L3.92383 6.64198C3.70508 6.86886 3.49609 7.10992 3.30273 7.36111C3.10742 7.61432 2.92383 7.87766 2.75391 8.15114C1.87695 9.56104 1.37109 11.2363 1.37109 13.0331V13.0351C1.37109 14.283 1.61523 15.4721 2.05664 16.5538C2.12891 16.7301 2.20508 16.9043 2.28711 17.0724C2.70898 17.9455 3.26367 18.7416 3.92578 19.4263L3.92969 19.4303C4.14844 19.6572 4.38086 19.874 4.62305 20.0765C4.86719 20.2791 5.12109 20.4695 5.38477 20.6458C6.74219 21.5492 8.35742 22.0739 10.0898 22.0739H10.0918C11.2949 22.0739 12.4414 21.8207 13.4844 21.3629C13.6543 21.2879 13.8223 21.2089 13.9844 21.1238C14.8281 20.6863 15.5938 20.111 16.2539 19.4263H16.2559L16.2617 19.4202C16.4805 19.1933 16.6875 18.9543 16.8828 18.7031C17.0781 18.4499 17.2617 18.1865 17.4316 17.9131C18.3027 16.5072 18.8086 14.834 18.8086 13.0392L20.1777 12.8204C20.1797 12.8913 20.1797 12.9622 20.1797 13.0331V13.0351C20.1797 14.4795 19.8965 15.857 19.3867 17.1068C19.3047 17.3094 19.2148 17.51 19.1191 17.7085C18.6309 18.7213 17.9883 19.641 17.2246 20.4331L17.2207 20.4371C16.9668 20.7005 16.6973 20.9516 16.418 21.1846C16.1367 21.4196 15.8418 21.6404 15.5371 21.843C13.9668 22.8903 12.0977 23.498 10.0918 23.498C8.69922 23.498 7.37109 23.2042 6.16602 22.6755C5.9707 22.5905 5.77734 22.4973 5.58594 22.398C4.60938 21.8916 3.72266 21.2251 2.95898 20.4331L2.95508 20.427C2.70117 20.1636 2.46094 19.8861 2.23438 19.5944C2.00781 19.3027 1.79492 18.9968 1.59961 18.6808C0.585937 17.0521 0 15.1135 0 13.0331V13.0311C0 11.5868 0.283203 10.2113 0.792969 8.9594C0.875 8.75683 0.964844 8.55628 1.06055 8.35776C1.54883 7.3449 2.19141 6.42522 2.95508 5.63317L2.95898 5.62912C3.21289 5.36577 3.48242 5.11661 3.76172 4.88163C4.04297 4.64664 4.33789 4.42584 4.64258 4.22327C6.21484 3.17597 8.08398 2.56826 10.0898 2.56826ZM10.9141 12.5611L17.2461 0.5L18.0645 7.34895L24 10.4665L10.9141 12.5611ZM10.0898 9.72107H10.0918C10.2324 9.72107 10.3711 9.7312 10.5059 9.74943L9.75781 11.1755C9.62695 11.1998 9.5 11.2404 9.38086 11.293C9.3457 11.3092 9.31055 11.3254 9.27539 11.3437C9.09961 11.4348 8.93945 11.5543 8.80078 11.6982L8.79688 11.7022C8.75195 11.7488 8.71094 11.7974 8.66992 11.8481C8.62891 11.9007 8.58984 11.9554 8.55469 12.0142C8.37305 12.3079 8.26758 12.6584 8.26758 13.0331V13.0351C8.26758 13.2965 8.31836 13.5436 8.41211 13.7705C8.42773 13.809 8.44336 13.8454 8.46094 13.8799C8.54883 14.0622 8.66406 14.2283 8.80273 14.3721L8.80664 14.3762C8.85156 14.4228 8.89844 14.4673 8.94727 14.5078C8.99805 14.5504 9.05078 14.5909 9.10742 14.6274C9.39062 14.8157 9.72852 14.9251 10.0898 14.9251C10.3418 14.9251 10.5801 14.8725 10.7988 14.7773C10.8359 14.7611 10.8691 14.7448 10.9043 14.7266C11.0801 14.6355 11.2402 14.5159 11.3789 14.3721L11.3828 14.3681C11.4082 14.3417 11.4316 14.3154 11.4531 14.2911C11.4746 14.2668 11.4961 14.2384 11.5176 14.2101L13.1602 13.9467C13.125 14.0764 13.082 14.204 13.0312 14.3255C13.0059 14.3883 12.9766 14.4531 12.9473 14.5159C12.793 14.838 12.5898 15.1277 12.3477 15.3789L12.3418 15.3829C12.2617 15.464 12.1797 15.543 12.0918 15.6159C12.002 15.6909 11.9102 15.7597 11.8125 15.8246C11.3145 16.1547 10.7246 16.3472 10.0898 16.3472C9.64844 16.3472 9.22852 16.254 8.84766 16.0859C8.78711 16.0595 8.72461 16.0292 8.66406 15.9988C8.35352 15.8387 8.07422 15.6281 7.83203 15.3769L7.82617 15.3708C7.74805 15.2898 7.67187 15.2027 7.60156 15.1115C7.5293 15.0183 7.46289 14.9231 7.40039 14.8218C7.08203 14.3073 6.89648 13.6935 6.89648 13.0351V13.0331C6.89648 12.5753 6.98633 12.1398 7.14844 11.7448C7.17383 11.682 7.20312 11.6171 7.23242 11.5543C7.38672 11.2343 7.58984 10.9426 7.83203 10.6934C7.91211 10.6104 7.99805 10.5314 8.08789 10.4564C8.17773 10.3815 8.26953 10.3126 8.36719 10.2478C8.86328 9.91351 9.45508 9.72107 10.0898 9.72107ZM10.0898 6.11529C10.6875 6.11529 11.2656 6.19632 11.8145 6.35027C11.9043 6.37458 11.9922 6.40092 12.0801 6.4313C12.127 6.44751 12.1758 6.46371 12.2227 6.47992L11.5547 7.7541C11.0898 7.61635 10.5977 7.54139 10.0879 7.54139C9.35742 7.54139 8.66016 7.69535 8.02539 7.97287C7.92578 8.01744 7.82422 8.06606 7.7207 8.11872L7.71289 8.12278C7.20313 8.38815 6.74219 8.73657 6.3418 9.15184L6.33789 9.15589C6.20508 9.29364 6.08008 9.43949 5.96094 9.59142C5.8418 9.74538 5.73047 9.90541 5.62695 10.0715C5.09766 10.9264 4.79102 11.9453 4.79102 13.0372V13.0392C4.79102 13.7968 4.93945 14.52 5.20703 15.1784C5.25 15.2857 5.29688 15.3911 5.34766 15.4944C5.60352 16.0251 5.94141 16.5072 6.34375 16.9245C6.47852 17.0643 6.62109 17.196 6.76758 17.3195C6.91602 17.4431 7.07031 17.5586 7.23047 17.6659C8.05469 18.2108 9.03711 18.5289 10.0898 18.5289H10.0918C10.8223 18.5289 11.5195 18.3749 12.1543 18.0974C12.2578 18.0528 12.3594 18.0042 12.459 17.9516C12.9707 17.6862 13.4355 17.3357 13.8379 16.9184C13.9727 16.7787 14.1016 16.6308 14.2188 16.4789C14.3379 16.3249 14.4492 16.1649 14.5527 15.9988C14.9922 15.2898 15.2773 14.4714 15.3633 13.5902L16.7539 13.3674C16.7148 14.1999 16.5352 14.994 16.2383 15.7253C16.1836 15.859 16.125 15.9927 16.0605 16.1223C15.7383 16.7928 15.3125 17.4006 14.8086 17.9232L14.8047 17.9272C14.6367 18.1015 14.459 18.2655 14.2754 18.4215C14.0898 18.5775 13.8945 18.7234 13.6934 18.8571C12.6543 19.5478 11.418 19.9509 10.0938 19.9509C9.17383 19.9509 8.29492 19.7565 7.49805 19.408C7.36914 19.3513 7.24023 19.2906 7.11523 19.2237C6.46875 18.8895 5.88281 18.4479 5.37891 17.9252L5.375 17.9191C5.20703 17.7449 5.04883 17.5626 4.90039 17.3702C4.75 17.1777 4.60938 16.9752 4.48047 16.7665C3.8125 15.6888 3.42578 14.4086 3.42578 13.0331V13.0311C3.42578 12.077 3.61328 11.1654 3.95117 10.3389C4.00586 10.2052 4.06445 10.0715 4.12891 9.94187C4.45117 9.27136 4.87695 8.66364 5.38086 8.14101L5.38477 8.13696C5.55273 7.96274 5.72852 7.79866 5.91406 7.64471C6.09961 7.48873 6.29492 7.34287 6.49609 7.20918C7.5293 6.51638 8.76562 6.11529 10.0898 6.11529Z" fill="#007BFF"/>
</g>
<defs>
<clipPath id="clip0_4205_2544">
<rect width="24" height="24" fill="white"/>
</clipPath>
</defs>
</svg>
